<svg width="146" height="37" viewBox="0 0 146 37" fill="none" xmlns="http://www.w3.org/2000/svg">
<path d="M27.4688 0.388916V35.6889H19.8635V33.2889C18.1624 35.1889 15.7607 36.3889 12.3584 36.3889C5.7538 36.3889 0.25 30.5889 0.25 23.0889C0.25 15.5889 5.7538 9.78892 12.3584 9.78892C15.7607 9.78892 18.2624 10.9889 19.8635 12.8889V0.388916H27.4688ZM19.8635 23.0889C19.8635 19.2889 17.3618 16.8889 13.8594 16.8889C10.357 16.8889 7.85524 19.2889 7.85524 23.0889C7.85524 26.8889 10.357 29.2889 13.8594 29.2889C17.3618 29.1889 19.8635 26.8889 19.8635 23.0889Z" fill="black"/>
<path d="M43.9798 29.5888C46.0813 29.5888 47.7825 28.7888 48.7832 27.6888L54.8874 31.1888C52.3856 34.5888 48.6831 36.3888 43.8798 36.3888C35.2738 36.3888 29.8701 30.5888 29.8701 23.0888C29.8701 15.5888 35.2738 9.78882 43.2794 9.78882C50.6845 9.78882 56.0882 15.4888 56.0882 23.0888C56.0882 24.1888 55.9881 25.1888 55.788 26.0888H37.8756C38.8763 28.6888 41.1779 29.5888 43.9798 29.5888ZM48.583 20.4888C47.7825 17.5888 45.4809 16.4888 43.1793 16.4888C40.2773 16.4888 38.376 17.8888 37.6755 20.4888H48.583Z" fill="black"/>
<path d="M82.4063 10.489L73.0999 35.689H64.4939L55.1875 10.489H63.5933L68.897 26.489L74.2006 10.489C74.2006 10.489 82.4063 10.489 82.4063 10.489Z" fill="black"/>
<path d="M83.708 10.489H91.3133V35.689H83.708V10.489Z" fill="black"/>
<path d="M93.915 23.0888C93.915 15.5888 99.619 9.78882 107.324 9.78882C112.228 9.78882 116.531 12.3888 118.732 16.2888L112.128 20.0888C111.227 18.2888 109.426 17.2888 107.224 17.2888C103.922 17.2888 101.52 19.6888 101.52 23.0888C101.52 26.5888 103.922 28.8888 107.224 28.8888C109.426 28.8888 111.327 27.7888 112.128 26.0888L118.732 29.8888C116.631 33.7888 112.328 36.3888 107.324 36.3888C99.619 36.3888 93.915 30.5888 93.915 23.0888Z" fill="black"/>
<path d="M133.142 29.5888C135.243 29.5888 136.945 28.7888 137.945 27.6888L144.049 31.1888C141.548 34.5888 137.845 36.3888 133.042 36.3888C124.436 36.3888 119.032 30.5888 119.032 23.0888C119.032 15.5888 124.536 9.78882 132.441 9.78882C139.847 9.78882 145.25 15.4888 145.25 23.0888C145.25 24.1888 145.15 25.1888 144.95 26.0888H127.038C128.038 28.6888 130.34 29.5888 133.142 29.5888ZM137.845 20.4888C137.045 17.5888 134.743 16.4888 132.441 16.4888C129.539 16.4888 127.638 17.8888 126.938 20.4888H137.845Z" fill="black"/>
<path d="M83.708 0.388916V10.4889L91.3133 0.388916H83.708Z" fill="#510094"/>
</svg>
