<svg width="17" height="15" viewBox="0 0 17 15" fill="none" xmlns="http://www.w3.org/2000/svg">
<path d="M15.55 5.38892L12.05 5.58892L8.85 0.688916C8.75 0.488916 8.45 0.388916 8.25 0.388916C8.05 0.388916 7.75 0.488916 7.65 0.688916L4.45 5.58892H0.95C0.55 5.58892 0.25 5.88892 0.25 6.28892C0.25 6.38892 0.25 6.38892 0.25 6.48892L2.15 13.2889C2.35 13.9889 2.85 14.3889 3.55 14.3889H12.95C13.65 14.3889 14.15 13.9889 14.35 13.2889L16.25 6.38892C16.25 6.28892 16.25 6.28892 16.25 6.18892C16.25 5.78892 15.95 5.38892 15.55 5.38892ZM8.25 2.28892L10.45 5.48892H6.15L8.25 2.28892Z" fill="black"/>
</svg>
