<svg width="17" height="17" viewBox="0 0 17 17" fill="none" xmlns="http://www.w3.org/2000/svg">
<g clip-path="url(#clip0_41201_622)">
<path d="M15.95 14.6889L12.85 11.5889C13.75 10.3889 14.25 8.98892 14.25 7.38892C14.25 3.48892 11.15 0.388916 7.25 0.388916C3.35 0.388916 0.25 3.48892 0.25 7.38892C0.25 11.2889 3.35 14.3889 7.25 14.3889C8.85 14.3889 10.25 13.8889 11.45 12.9889L14.55 16.0889C14.75 16.2889 14.95 16.3889 15.25 16.3889C15.85 16.3889 16.25 15.9889 16.25 15.3889C16.25 15.1889 16.15 14.8889 15.95 14.6889ZM2.25 7.38892C2.25 4.58892 4.45 2.38892 7.25 2.38892C10.05 2.38892 12.25 4.58892 12.25 7.38892C12.25 10.1889 10.05 12.3889 7.25 12.3889C4.45 12.3889 2.25 10.1889 2.25 7.38892Z" fill="black"/>
</g>
<defs>
<clipPath id="clip0_41201_622">
<rect width="16" height="16" fill="white" transform="translate(0.25 0.388916)"/>
</clipPath>
</defs>
</svg>
